<svg width="667" height="218" viewBox="0 0 667 218" fill="none" xmlns="http://www.w3.org/2000/svg">
<path d="M221.074 49.2246C223.262 49.2246 225.381 50.2728 227.432 52.3691C229.528 54.4199 231.51 57.2227 233.379 60.7773C235.247 64.2865 236.979 68.388 238.574 73.082C240.169 77.7305 241.628 82.6523 242.949 87.8477C246.185 92.0404 249.626 96.4382 253.271 101.041C256.917 105.644 260.677 110.315 264.551 115.055C268.47 119.794 272.435 124.557 276.445 129.342C280.501 134.081 284.535 138.73 288.545 143.287C285.674 130.663 283.509 119.316 282.051 109.244C280.592 99.1725 279.863 90.3086 279.863 82.6523C279.863 77.138 280.387 72.3073 281.436 68.1602C282.529 63.9674 283.988 60.4811 285.811 57.7012C287.633 54.8757 289.775 52.7565 292.236 51.3438C294.697 49.931 297.34 49.2246 300.166 49.2246C302.262 49.2246 304.085 49.5892 305.635 50.3184C307.23 51.0475 308.551 52.0273 309.6 53.2578C310.693 54.4883 311.491 55.901 311.992 57.4961C312.539 59.0911 312.812 60.7546 312.812 62.4863C312.812 64.8105 312.562 66.9753 312.061 68.9805C311.605 70.9857 311.104 72.7402 310.557 74.2441C309.873 76.0215 309.121 77.6621 308.301 79.166L305.635 77.457C305.817 77.0469 306.068 76.4544 306.387 75.6797C306.751 74.8594 307.093 73.8796 307.412 72.7402C307.731 71.5553 308.005 70.2337 308.232 68.7754C308.46 67.2715 308.574 65.6536 308.574 63.9219C308.574 61.0964 307.936 58.8861 306.66 57.291C305.384 55.6504 303.698 54.8301 301.602 54.8301C298.867 54.8301 296.543 55.7643 294.629 57.6328C292.76 59.4557 291.234 62.0078 290.049 65.2891C288.91 68.5247 288.066 72.3529 287.52 76.7734C287.018 81.1484 286.768 85.8652 286.768 90.9238C286.768 95.6634 286.973 100.608 287.383 105.758C287.793 110.862 288.34 115.989 289.023 121.139C289.753 126.243 290.573 131.256 291.484 136.178C292.441 141.1 293.467 145.702 294.561 149.986L304.404 160.514L296.133 168.307C293.444 165.709 290.163 162.405 286.289 158.395C282.461 154.384 278.314 149.85 273.848 144.791C269.382 139.732 264.71 134.264 259.834 128.385C255.003 122.506 250.241 116.422 245.547 110.133C246.003 112.73 246.299 115.488 246.436 118.404C246.618 121.275 246.709 124.443 246.709 127.906C246.709 134.241 245.957 139.687 244.453 144.244C242.949 148.756 240.99 152.493 238.574 155.455C236.204 158.372 233.538 160.536 230.576 161.949C227.66 163.316 224.766 164 221.895 164C219.661 164 217.52 163.613 215.469 162.838C213.464 162.063 211.686 160.924 210.137 159.42C208.633 157.916 207.425 156.093 206.514 153.951C205.602 151.764 205.146 149.28 205.146 146.5C205.146 142.262 206.172 138.16 208.223 134.195C210.273 130.23 212.871 126.493 216.016 122.984L218.682 124.352C217.77 125.719 216.904 127.177 216.084 128.727C215.309 130.276 214.603 131.871 213.965 133.512C213.372 135.107 212.894 136.747 212.529 138.434C212.165 140.12 211.982 141.783 211.982 143.424C211.982 145.52 212.301 147.434 212.939 149.166C213.623 150.852 214.512 152.311 215.605 153.541C216.699 154.726 217.975 155.66 219.434 156.344C220.938 156.982 222.51 157.301 224.15 157.301C226.292 157.301 228.457 156.686 230.645 155.455C232.878 154.179 234.883 152.174 236.66 149.439C238.483 146.66 239.964 143.082 241.104 138.707C242.243 134.286 242.812 128.954 242.812 122.711C242.812 119.111 242.585 115.624 242.129 112.252C241.719 108.834 241.104 105.644 240.283 102.682C235.316 95.6178 231.214 89.5111 227.979 84.3613C224.788 79.2116 222.259 74.8138 220.391 71.168C218.568 67.4766 217.292 64.446 216.562 62.0762C215.833 59.7064 215.469 57.7467 215.469 56.1973C215.469 53.7363 216.038 51.959 217.178 50.8652C218.363 49.7715 219.661 49.2246 221.074 49.2246ZM219.707 54.0781C219.707 54.5339 220.094 55.4909 220.869 56.9492C221.689 58.362 222.829 60.1849 224.287 62.418C225.791 64.6055 227.591 67.1576 229.688 70.0742C231.784 72.9909 234.131 76.1582 236.729 79.5762C235.589 75.9759 234.336 72.5579 232.969 69.3223C231.647 66.041 230.303 63.1699 228.936 60.709C227.568 58.248 226.201 56.3112 224.834 54.8984C223.467 53.4401 222.214 52.7109 221.074 52.7109C220.163 52.7109 219.707 53.1667 219.707 54.0781ZM368.73 135.289L367.979 136.725C366.429 139.824 364.355 142.307 361.758 144.176C359.206 145.999 356.426 147.184 353.418 147.73C352.598 150.055 351.527 152.219 350.205 154.225C348.929 156.184 347.448 157.893 345.762 159.352C344.121 160.81 342.253 161.949 340.156 162.77C338.105 163.59 335.872 164 333.457 164C329.948 164 326.781 163.271 323.955 161.812C321.175 160.309 318.805 158.303 316.846 155.797C314.886 153.245 313.382 150.283 312.334 146.91C311.286 143.492 310.762 139.846 310.762 135.973C310.762 132.6 311.149 129.547 311.924 126.812C312.699 124.033 313.678 121.572 314.863 119.43C316.048 117.242 317.37 115.351 318.828 113.756C320.286 112.115 321.722 110.771 323.135 109.723C324.548 108.674 325.824 107.9 326.963 107.398C328.148 106.852 329.036 106.578 329.629 106.578L330.518 108.971C328.649 110.338 326.986 112.252 325.527 114.713C324.251 116.809 323.089 119.589 322.041 123.053C321.038 126.516 320.537 130.823 320.537 135.973C320.537 139.117 320.833 142.171 321.426 145.133C322.018 148.095 322.884 150.715 324.023 152.994C325.163 155.273 326.553 157.096 328.193 158.463C329.88 159.83 331.771 160.514 333.867 160.514C336.738 160.514 339.108 159.374 340.977 157.096C342.891 154.771 344.303 151.604 345.215 147.594C342.845 147.092 340.589 146.158 338.447 144.791C336.305 143.424 334.414 141.738 332.773 139.732C331.133 137.682 329.811 135.335 328.809 132.691C327.852 130.048 327.373 127.177 327.373 124.078C327.373 121.526 327.692 119.293 328.33 117.379C329.014 115.419 329.902 113.801 330.996 112.525C332.09 111.204 333.343 110.224 334.756 109.586C336.214 108.902 337.741 108.561 339.336 108.561C341.204 108.561 343.118 109.107 345.078 110.201C347.038 111.249 348.815 112.844 350.41 114.986C352.005 117.083 353.304 119.726 354.307 122.916C355.309 126.106 355.811 129.82 355.811 134.059C355.811 135.654 355.719 137.226 355.537 138.775C355.355 140.325 355.081 141.829 354.717 143.287C356.904 142.649 358.887 141.624 360.664 140.211C362.487 138.798 363.991 136.93 365.176 134.605L365.928 133.17L368.73 135.289ZM331.885 123.531C331.885 126.22 332.249 128.704 332.979 130.982C333.753 133.215 334.779 135.198 336.055 136.93C337.331 138.616 338.812 140.029 340.498 141.168C342.184 142.307 343.984 143.105 345.898 143.561C346.126 142.285 346.263 140.963 346.309 139.596C346.4 138.183 346.445 136.747 346.445 135.289C346.445 132.053 346.195 129.137 345.693 126.539C345.192 123.896 344.531 121.663 343.711 119.84C342.891 117.971 341.934 116.536 340.84 115.533C339.746 114.531 338.63 114.029 337.49 114.029C335.941 114.029 334.619 114.872 333.525 116.559C332.432 118.199 331.885 120.523 331.885 123.531ZM365.723 141.578C365.723 136.747 365.905 131.894 366.27 127.018C366.634 122.141 367.113 117.197 367.705 112.184H361.484L362.236 108.014H368.252C368.89 103.365 369.528 98.7168 370.166 94.0684C370.85 89.3743 371.465 84.6803 372.012 79.9863H378.984C378.893 80.9889 378.757 82.4473 378.574 84.3613C378.438 86.2298 378.255 88.4173 378.027 90.9238C377.845 93.3848 377.663 96.0964 377.48 99.0586C377.298 101.975 377.116 104.96 376.934 108.014H390.195L389.512 112.184H376.66C376.478 114.781 376.318 117.333 376.182 119.84C376.045 122.346 375.908 124.739 375.771 127.018C375.68 129.251 375.612 131.324 375.566 133.238C375.521 135.107 375.498 136.725 375.498 138.092C375.498 141.555 375.589 144.449 375.771 146.773C375.999 149.098 376.318 150.966 376.729 152.379C377.184 153.792 377.731 154.794 378.369 155.387C379.053 155.979 379.827 156.275 380.693 156.275C381.833 156.275 383.086 155.706 384.453 154.566C385.866 153.382 387.324 151.809 388.828 149.85C390.332 147.89 391.859 145.611 393.408 143.014C394.958 140.37 396.462 137.568 397.92 134.605L398.604 133.17L401.406 135.289L400.723 136.725C398.626 140.963 396.53 144.768 394.434 148.141C392.383 151.513 390.355 154.384 388.35 156.754C386.344 159.078 384.385 160.878 382.471 162.154C380.557 163.385 378.711 164 376.934 164C375.156 164 373.561 163.59 372.148 162.77C370.781 161.949 369.619 160.65 368.662 158.873C367.705 157.05 366.976 154.726 366.475 151.9C365.973 149.075 365.723 145.634 365.723 141.578ZM418.838 156.275C420.433 156.275 422.051 155.865 423.691 155.045C425.378 154.225 427.064 152.949 428.75 151.217C430.482 149.485 432.259 147.252 434.082 144.518C435.905 141.738 437.773 138.434 439.688 134.605L440.371 133.17L443.174 135.289L442.49 136.725C440.029 141.601 437.568 145.771 435.107 149.234C432.692 152.698 430.299 155.523 427.93 157.711C425.605 159.898 423.304 161.493 421.025 162.496C418.747 163.499 416.559 164 414.463 164C411.501 164 408.857 163.385 406.533 162.154C404.209 160.924 402.249 159.26 400.654 157.164C399.059 155.022 397.852 152.561 397.031 149.781C396.165 146.956 395.732 143.993 395.732 140.895C395.732 135.973 396.416 131.507 397.783 127.496C399.105 123.44 400.882 119.977 403.115 117.105C405.394 114.234 407.969 112.001 410.84 110.406C413.711 108.811 416.696 108.014 419.795 108.014C422.939 108.014 425.332 108.811 426.973 110.406C428.659 112.001 429.502 114.007 429.502 116.422C429.502 118.746 428.841 120.934 427.52 122.984C426.198 124.99 424.398 126.972 422.119 128.932C419.886 130.846 417.288 132.76 414.326 134.674C411.364 136.542 408.242 138.479 404.961 140.484C405.28 142.854 405.827 145.019 406.602 146.979C407.376 148.893 408.356 150.556 409.541 151.969C410.726 153.336 412.093 154.407 413.643 155.182C415.192 155.911 416.924 156.275 418.838 156.275ZM420.957 118.473C420.957 116.65 420.456 115.214 419.453 114.166C418.496 113.118 417.311 112.594 415.898 112.594C414.714 112.594 413.46 113.027 412.139 113.893C410.817 114.713 409.609 116.057 408.516 117.926C407.422 119.749 406.51 122.096 405.781 124.967C405.052 127.838 404.688 131.324 404.688 135.426V136.998C406.237 136.178 407.946 135.107 409.814 133.785C411.729 132.418 413.506 130.914 415.146 129.273C416.787 127.633 418.154 125.901 419.248 124.078C420.387 122.21 420.957 120.341 420.957 118.473ZM476.738 147.867C476.237 151.422 475.508 154.452 474.551 156.959C473.594 159.42 472.432 161.448 471.064 163.043C469.697 164.592 468.125 165.709 466.348 166.393C464.616 167.122 462.702 167.486 460.605 167.486C457.643 167.486 454.863 166.62 452.266 164.889C449.714 163.157 447.503 160.582 445.635 157.164C443.766 153.746 442.285 149.508 441.191 144.449C440.143 139.391 439.619 133.535 439.619 126.881C439.619 119.908 440.28 113.141 441.602 106.578C442.969 100.016 444.883 93.8633 447.344 88.1211C449.85 82.3789 452.835 77.138 456.299 72.3984C459.808 67.6133 463.704 63.5345 467.988 60.1621C472.318 56.7441 476.989 54.1009 482.002 52.2324C487.015 50.3184 492.256 49.3613 497.725 49.3613C502.419 49.3613 506.702 50.0677 510.576 51.4805C514.45 52.8932 517.777 54.8529 520.557 57.3594C523.337 59.8659 525.479 62.8281 526.982 66.2461C528.486 69.6641 529.238 73.3555 529.238 77.3203C529.238 82.1055 528.577 86.5716 527.256 90.7188C525.934 94.8203 524.089 98.5801 521.719 101.998C519.395 105.416 516.615 108.469 513.379 111.158C510.143 113.847 506.611 116.126 502.783 117.994C499.001 119.863 494.99 121.321 490.752 122.369C486.559 123.372 482.298 123.941 477.969 124.078C477.832 129.775 477.673 134.583 477.49 138.502C477.354 142.376 477.103 145.497 476.738 147.867ZM464.844 119.225C465.072 119.316 465.345 119.407 465.664 119.498C465.938 119.589 466.257 119.68 466.621 119.771C467.031 119.863 467.51 119.954 468.057 120.045C467.965 114.348 467.852 109.13 467.715 104.391C467.624 99.6055 467.51 95.4355 467.373 91.8809C467.191 87.7337 467.031 83.9967 466.895 80.6699C467.214 80.3965 467.578 80.1686 467.988 79.9863C468.353 79.804 468.786 79.6445 469.287 79.5078C469.788 79.3711 470.404 79.3027 471.133 79.3027C473.229 79.3027 474.915 79.6901 476.191 80.4648C477.467 81.194 478.105 82.4473 478.105 84.2246C478.105 91.7441 478.105 98.4889 478.105 104.459C478.105 110.429 478.06 115.807 477.969 120.592C483.939 120.592 489.339 119.452 494.17 117.174C499.046 114.895 503.193 111.865 506.611 108.082C510.029 104.254 512.673 99.8561 514.541 94.8887C516.41 89.9212 517.344 84.7259 517.344 79.3027C517.344 75.8392 516.865 72.5579 515.908 69.459C514.997 66.3145 513.584 63.5801 511.67 61.2559C509.756 58.8861 507.34 57.0176 504.424 55.6504C501.553 54.2376 498.158 53.5312 494.238 53.5312C490.273 53.5312 486.354 54.2832 482.48 55.7871C478.652 57.291 474.984 59.5469 471.475 62.5547C468.011 65.5625 464.798 69.2995 461.836 73.7656C458.919 78.2318 456.367 83.4499 454.18 89.4199C452.038 95.39 450.352 102.089 449.121 109.518C447.936 116.9 447.344 125.035 447.344 133.922C447.344 137.75 447.526 141.487 447.891 145.133C448.301 148.733 448.962 151.946 449.873 154.771C450.785 157.551 451.992 159.785 453.496 161.471C455.046 163.157 456.96 164 459.238 164C460.469 164 461.631 163.749 462.725 163.248C463.818 162.747 464.775 161.721 465.596 160.172C466.416 158.577 467.077 156.321 467.578 153.404C468.079 150.442 468.33 146.5 468.33 141.578C468.33 138.479 468.307 135.426 468.262 132.418C468.216 129.365 468.193 126.402 468.193 123.531C467.51 123.44 466.917 123.326 466.416 123.189C465.915 123.053 465.482 122.939 465.117 122.848C464.707 122.711 464.365 122.574 464.092 122.438L464.844 119.225ZM565.059 147.047C565.059 149.645 565.286 151.832 565.742 153.609C566.198 155.387 566.995 156.275 568.135 156.275C568.818 156.275 569.548 155.956 570.322 155.318C571.143 154.635 572.077 153.541 573.125 152.037C574.173 150.533 575.358 148.596 576.68 146.227C578.047 143.811 579.596 140.872 581.328 137.408L583.379 133.17L586.182 135.289L584.131 139.527C582.217 143.355 580.417 146.796 578.73 149.85C577.09 152.857 575.518 155.41 574.014 157.506C572.51 159.602 571.029 161.22 569.57 162.359C568.158 163.453 566.745 164 565.332 164C563.828 164 562.552 163.59 561.504 162.77C560.501 161.949 559.658 160.833 558.975 159.42C558.291 157.962 557.767 156.298 557.402 154.43C557.038 152.516 556.787 150.488 556.65 148.346C555.557 150.533 554.349 152.584 553.027 154.498C551.706 156.367 550.316 158.007 548.857 159.42C547.445 160.833 545.964 161.949 544.414 162.77C542.865 163.59 541.315 164 539.766 164C537.487 164 535.277 163.521 533.135 162.564C530.993 161.607 529.079 160.149 527.393 158.189C525.752 156.23 524.43 153.769 523.428 150.807C522.425 147.799 521.924 144.267 521.924 140.211C521.924 135.471 522.539 131.142 523.77 127.223C525 123.258 526.663 119.863 528.76 117.037C530.856 114.166 533.271 111.956 536.006 110.406C538.74 108.811 541.611 108.014 544.619 108.014C546.442 108.014 548.128 108.424 549.678 109.244C551.227 110.064 552.572 111.067 553.711 112.252C554.896 113.391 555.876 114.622 556.65 115.943C557.425 117.219 557.949 118.313 558.223 119.225L559.043 112.594C559.134 111.728 559.544 110.999 560.273 110.406C561.048 109.814 561.891 109.358 562.803 109.039C563.714 108.674 564.603 108.424 565.469 108.287C566.335 108.105 566.95 108.014 567.314 108.014C567.861 108.014 568.226 108.105 568.408 108.287C568.59 108.469 568.682 108.834 568.682 109.381C568.682 110.064 568.477 111.454 568.066 113.551C567.702 115.602 567.292 118.245 566.836 121.48C566.426 124.671 566.016 128.43 565.605 132.76C565.241 137.089 565.059 141.852 565.059 147.047ZM557.539 129C557.539 126.904 557.22 124.853 556.582 122.848C555.944 120.797 555.078 118.997 553.984 117.447C552.891 115.852 551.615 114.576 550.156 113.619C548.743 112.662 547.24 112.184 545.645 112.184C543.685 112.184 541.839 112.753 540.107 113.893C538.421 114.986 536.94 116.559 535.664 118.609C534.434 120.615 533.454 123.053 532.725 125.924C531.995 128.749 531.631 131.871 531.631 135.289C531.631 142.125 532.702 147.343 534.844 150.943C536.986 154.498 539.834 156.275 543.389 156.275C544.938 156.275 546.533 155.66 548.174 154.43C549.86 153.154 551.387 151.354 552.754 149.029C554.167 146.66 555.306 143.788 556.172 140.416C557.083 137.044 557.539 133.238 557.539 129ZM597.256 164C594.476 164 592.061 163.408 590.01 162.223C588.005 161.038 586.341 159.443 585.02 157.438C583.698 155.387 582.718 153.04 582.08 150.396C581.442 147.753 581.123 144.951 581.123 141.988C581.123 139.391 581.374 136.747 581.875 134.059C582.376 131.37 583.083 128.772 583.994 126.266C584.951 123.714 586.136 121.344 587.549 119.156C588.962 116.923 590.579 114.986 592.402 113.346C594.225 111.705 596.253 110.406 598.486 109.449C600.765 108.492 603.203 108.014 605.801 108.014C608.763 108.014 611.27 108.674 613.32 109.996C615.417 111.318 617.103 112.936 618.379 114.85C618.424 106.236 618.857 98.6257 619.678 92.0176C620.498 85.4095 621.637 79.8724 623.096 75.4062C624.6 70.9401 626.377 67.5677 628.428 65.2891C630.479 62.9648 632.734 61.8027 635.195 61.8027C636.061 61.8027 636.836 61.9167 637.52 62.1445C638.249 62.3268 638.841 62.6914 639.297 63.2383C639.798 63.7852 640.163 64.5371 640.391 65.4941C640.664 66.4056 640.801 67.5905 640.801 69.0488C640.801 72.0566 640.505 75.5202 639.912 79.4395C639.32 83.3132 638.477 87.5514 637.383 92.1543C636.289 96.7116 634.945 101.588 633.35 106.783C631.8 111.933 630.068 117.288 628.154 122.848C628.2 127.724 628.268 131.939 628.359 135.494C628.451 139.049 628.564 142.057 628.701 144.518C628.883 146.979 629.089 148.984 629.316 150.533C629.59 152.083 629.886 153.29 630.205 154.156C630.57 154.977 630.98 155.546 631.436 155.865C631.937 156.139 632.484 156.275 633.076 156.275C634.124 156.275 635.173 155.82 636.221 154.908C637.314 153.951 638.477 152.561 639.707 150.738C640.938 148.87 642.259 146.591 643.672 143.902C645.13 141.214 646.725 138.115 648.457 134.605L649.209 133.17L652.012 135.289L651.26 136.725C648.617 142.057 646.292 146.477 644.287 149.986C642.282 153.45 640.436 156.23 638.75 158.326C637.109 160.423 635.537 161.904 634.033 162.77C632.529 163.59 630.957 164 629.316 164C627.721 164 626.331 163.613 625.146 162.838C624.007 162.018 623.027 160.764 622.207 159.078C621.387 157.346 620.726 155.159 620.225 152.516C619.723 149.827 619.336 146.614 619.062 142.877C617.467 146.067 615.827 148.961 614.141 151.559C612.454 154.156 610.7 156.389 608.877 158.258C607.1 160.081 605.231 161.493 603.271 162.496C601.312 163.499 599.307 164 597.256 164ZM607.168 111.5C604.661 111.5 602.474 112.275 600.605 113.824C598.737 115.328 597.188 117.311 595.957 119.771C594.727 122.187 593.815 124.921 593.223 127.975C592.63 131.028 592.334 134.081 592.334 137.135C592.334 139.641 592.516 142.057 592.881 144.381C593.291 146.66 593.883 148.688 594.658 150.465C595.479 152.242 596.458 153.655 597.598 154.703C598.737 155.751 600.059 156.275 601.562 156.275C603.021 156.275 604.434 155.911 605.801 155.182C607.214 154.452 608.604 153.29 609.971 151.695C611.338 150.055 612.728 147.958 614.141 145.406C615.553 142.809 617.057 139.664 618.652 135.973C618.561 133.785 618.493 131.461 618.447 129C618.402 126.493 618.379 123.827 618.379 121.002C617.376 118.04 615.85 115.715 613.799 114.029C611.794 112.343 609.583 111.5 607.168 111.5ZM635.879 71.5781C635.879 69.4818 635.628 68.0234 635.127 67.2031C634.671 66.3828 634.124 65.9727 633.486 65.9727C632.393 65.9727 631.504 67.0436 630.82 69.1855C630.137 71.2819 629.59 74.1302 629.18 77.7305C628.815 81.3307 628.542 85.5007 628.359 90.2402C628.223 94.9798 628.154 99.9701 628.154 105.211V112.73C629.567 108.128 630.775 103.98 631.777 100.289C632.78 96.5977 633.577 93.1569 634.17 89.9668C634.762 86.7767 635.195 83.7005 635.469 80.7383C635.742 77.776 635.879 74.7227 635.879 71.5781Z" fill="#6499F3"/>
<path d="M157.896 21H89.8154L78.6113 112L89.8154 203H157.896V21Z" fill="#9BD6FF"/>
<path d="M89.8143 21H21.7347V203H89.8143V21Z" fill="#C4EAFF"/>
<path d="M140.284 60.0952H89.8154L86.0807 54.5235L89.8154 48.9523H140.284V60.0952Z" fill="#2D64BC"/>
<path d="M140.284 79.2539H89.8154L86.0807 73.6822L89.8154 68.111H140.284V79.2539Z" fill="#2D64BC"/>
<path d="M140.284 98.4129H89.8154L86.0807 92.8413L89.8154 87.27H140.284V98.4129Z" fill="#2D64BC"/>
<path d="M140.284 117.571H89.8154L86.0807 112L89.8154 106.429H140.284V117.571Z" fill="#2D64BC"/>
<path d="M140.284 136.73H89.8154L86.0807 131.159L89.8154 125.587H140.284V136.73Z" fill="#2D64BC"/>
<path d="M89.8139 68.1121H73.5498V79.2549H89.8139V68.1121Z" fill="#6499F3"/>
<path d="M61.9947 68.1121H39.3474V79.2549H61.9947V68.1121Z" fill="#6499F3"/>
<path d="M89.8143 87.2704H39.3474V98.4133H89.8143V87.2704Z" fill="#6499F3"/>
<path d="M89.8143 106.429H39.3474V117.572H89.8143V106.429Z" fill="#6499F3"/>
<path d="M89.8143 125.587H39.3474V136.73H89.8143V125.587Z" fill="#6499F3"/>
<path d="M89.8143 48.9537H39.3474V60.0966H89.8143V48.9537Z" fill="#6499F3"/>
<path d="M111.149 155.889H89.6566L85.922 150.318L89.6566 144.746H111.149V155.889Z" fill="#2D64BC"/>
<path d="M89.8143 144.745H39.3474V155.888H89.8143V144.745Z" fill="#6499F3"/>
<path d="M176.469 73.0687L103.68 150.318H114.392L184.268 80.8247L176.469 73.0687Z" fill="#FF8E00"/>
<path d="M176.469 73.0687L173.555 70.1709L184.267 80.8247L195.047 70.1041C198.005 67.1619 198.005 62.3926 195.047 59.4503L176.469 73.0687Z" fill="#E04C00"/>
<path d="M195.047 59.4503C192.088 56.5081 187.293 56.5081 184.334 59.4503L173.555 70.1709L178.911 75.4976L195.047 59.4503Z" fill="#FF7D3C"/>
<path d="M173.555 70.1709L103.68 139.664V150.318L178.911 75.498L173.555 70.1709Z" fill="#FFBA00"/>
</svg>
